<svg xmlns="http://www.w3.org/2000/svg" version="1.1" xmlns:xlink="http://www.w3.org/1999/xlink" xmlns:svgjs="http://svgjs.dev/svgjs" width="1000" height="879" viewBox="0 0 1000 879"><g transform="matrix(1,0,0,1,0.1563042599133837,0.3558704453441237)"><svg viewBox="0 0 281 247" data-background-color="#b19dd0" preserveAspectRatio="xMidYMid meet" height="879" width="1000" xmlns="http://www.w3.org/2000/svg" xmlns:xlink="http://www.w3.org/1999/xlink"><g id="tight-bounds" transform="matrix(1,0,0,1,-0.043921475502855856,-0.09999999999999432)"><svg viewBox="0 0 281.0878253543935 247.2" height="247.2" width="281.0878253543935"><g><svg viewBox="0 0 395.52 347.8362816914218" height="247.2" width="281.0878253543935"><g transform="matrix(1,0,0,1,0,254.33509616379365)"><svg viewBox="0 0 395.52 93.50118552762814" height="93.50118552762814" width="395.52"><g><svg viewBox="0 0 395.52 93.50118552762814" height="93.50118552762814" width="395.52"><g><svg viewBox="0 0 395.52 50.430071651662686" height="50.430071651662686" width="395.52"><g transform="matrix(1,0,0,1,0,0)"><svg width="395.52" viewBox="1.5 -34.29999923706055 269.1399841308594 34.70000076293945" height="50.430071651662686" data-palette-color="#7a26c1"><g class="undefined-text-0" data-fill-palette-color="primary" id="text-0"><path d="M25.7-33.7L25.7-27.5 17.5-27.5 17.5 0 9.75 0 9.75-27.5 1.5-27.5 1.5-33.7 25.7-33.7ZM58.25-33.7L58.25 0 50.5 0 50.5-13.45 38.15-13.45 38.15 0 30.45 0 30.45-33.7 38.15-33.7 38.15-20 50.5-20 50.5-33.7 58.25-33.7ZM85.7-6.15L85.7 0 64.75 0 64.75-33.7 85.5-33.7 85.5-27.55 72.5-27.55 72.5-19.9 84.09-19.9 84.09-13.8 72.5-13.8 72.5-6.15 85.7-6.15Z" fill="#7a26c1" data-fill-palette-color="primary"></path><path d="M100.45 0L100.45 0 88.95 0 88.95-33.7 100.55-33.7Q108.15-33.7 113-29.03 117.85-24.35 117.85-17.4L117.85-17.4Q117.85-9.3 113.08-4.65 108.3 0 100.45 0ZM100.3-27.35L100.3-27.35 96.85-27.35 96.85-6.3 100.35-6.3Q105-6.3 107.53-9.2 110.05-12.1 110.05-17.4L110.05-17.4Q110.05-21.9 107.5-24.63 104.95-27.35 100.3-27.35ZM131.3-33.7L131.3 0 123.6 0 123.6-33.7 131.3-33.7ZM167.35-20.1L167.35-3.1Q162.54 0.4 155.25 0.4L155.25 0.4Q147.15 0.4 142.1-4.25 137.05-8.9 137.05-16.9L137.05-16.9Q137.05-24.8 142.32-29.55 147.6-34.3 155.7-34.3L155.7-34.3Q161.4-34.3 165.54-32.2L165.54-32.2 165.54-24.5Q160.75-27.25 155.7-27.25L155.7-27.25Q150.95-27.25 148.15-24.43 145.35-21.6 145.35-16.9L145.35-16.9Q145.35-12.15 148.1-9.35 150.85-6.55 155.6-6.55L155.6-6.55Q157.75-6.55 159.85-7.2L159.85-7.2 159.85-13.55 154.4-13.55 154.4-20.1 167.35-20.1ZM181.79-33.7L181.79 0 174.09 0 174.09-33.7 181.79-33.7ZM211.24-33.7L211.24-27.5 203.04-27.5 203.04 0 195.29 0 195.29-27.5 187.04-27.5 187.04-33.7 211.24-33.7ZM226.19-14.3L226.19-14.3 225.84-13.1 233.94-13.1 233.59-14.3Q232.14-19.2 231.21-22.65 230.29-26.1 230.09-27.1L230.09-27.1 229.89-28.1Q229.49-25.35 226.19-14.3ZM223.99-6.9L221.94 0 213.89 0 225.14-33.7 234.84-33.7 246.09 0 237.84 0 235.79-6.9 223.99-6.9ZM270.64-6.75L270.64 0 250.49 0 250.49-33.7 258.19-33.7 258.19-6.75 270.64-6.75Z" fill="#6936f5" data-fill-palette-color="secondary"></path></g></svg></g></svg></g><g transform="matrix(1,0,0,1,0,62.33540124690061)"><svg viewBox="0 0 395.52 31.16578428072754" height="31.16578428072754" width="395.52"><g transform="matrix(1,0,0,1,0,0)"><svg width="395.52" viewBox="3.200000047683716 -37.209999084472656 622.4599609375 49.04999923706055" height="31.16578428072754" data-palette-color="#6936f5"><path d="M6.98-2.64L6.98-34.18 3.2-34.74 3.2-36.82 18.87-36.82Q28.56-36.82 33.96-32.08L33.96-32.08Q39.23-27.42 39.23-19.31L39.23-19.31Q39.23-13.48 36.52-8.89L36.52-8.89Q34.03-4.66 29.61-2.29L29.61-2.29Q25.32 0 20.36 0L20.36 0 3.2 0 3.2-2.08 6.98-2.64ZM18.75-33.86L11.5-33.86 11.5-2.93 20.31-2.93Q26.44-2.93 30.47-6.79L30.47-6.79Q34.62-10.82 34.62-17.31L34.62-17.31Q34.62-29.74 25.93-32.81L25.93-32.81Q22.92-33.86 18.75-33.86L18.75-33.86ZM174.85-24.73L174.85-2.59 177.97-2.03 177.97 0 167.72 0 167.72-2.03 170.89-2.59 170.89-20.36 167.72-20.92 167.72-22.95 174.85-24.73ZM170.76-32.19Q170.35-32.62 170.11-33.15 169.87-33.69 169.87-34.22 169.87-34.74 170.11-35.27 170.35-35.79 170.75-36.23L170.75-36.23Q171.65-37.21 172.39-37.21 173.14-37.21 173.66-36.94 174.19-36.67 174.6-36.23L174.6-36.23Q175.51-35.23 175.51-34.46 175.51-33.69 175.25-33.15 174.99-32.62 174.6-32.18L174.6-32.18Q173.67-31.23 172.91-31.23 172.14-31.23 171.65-31.49 171.16-31.76 170.76-32.19ZM328.26-3.56L328.7-1.27Q325.13 0.56 323.55 0.56L323.55 0.56Q319.98 0.56 319.98-2.47L319.98-2.47 319.98-3.22Q319.64-2.71 318.11-1.73 316.59-0.76 315.73-0.37L315.73-0.37Q313.71 0.56 312.66 0.56 311.61 0.56 310.92 0.48 310.24 0.39 309.51 0.15 308.78-0.1 308.07-0.54 307.36-0.98 306.8-1.68L306.8-1.68Q305.55-3.25 305.55-5.76L305.55-5.76Q305.55-9.23 308.02-10.6L308.02-10.6Q309.58-11.5 311.33-11.72 313.07-11.94 314.51-12.06L314.51-12.06Q317.25-12.3 319.98-12.35L319.98-12.35 319.98-17.48Q319.98-19.6 319.44-20.31L319.44-20.31Q318.54-21.56 316.64-21.56L316.64-21.56Q312.39-21.56 308.29-18.8L308.29-18.8 306.87-20.92Q312.58-24.73 317.1-24.73L317.1-24.73Q321.03-24.73 322.67-22.56L322.67-22.56Q323.94-20.87 323.94-17.77L323.94-17.77 323.94-4.93Q323.94-3.13 324.62-2.88L324.62-2.88Q324.86-2.81 325.26-2.81L325.26-2.81Q326.23-2.81 328.26-3.56L328.26-3.56ZM319.98-5.47L319.98-10.3Q313.05-10.03 311.09-8.91L311.09-8.91Q309.61-8.06 309.61-6.15L309.61-6.15Q309.61-3.39 311.73-2.76L311.73-2.76Q312.32-2.59 313.16-2.59 314-2.59 315.12-2.93 316.25-3.27 317.2-3.76L317.2-3.76Q319.01-4.64 319.98-5.47L319.98-5.47ZM457.79-2.59L457.79-20.36 454.67-20.92 454.67-22.95 461.75-24.73 461.75-18.51Q467.36-24.73 470.19-24.73L470.19-24.73Q472.51-24.73 474.47-22.88L474.47-22.88 473.2-18.92 472.05-18.92Q472.05-20.12 470.22-20.7L470.22-20.7Q469.71-20.85 469.19-20.85L469.19-20.85Q466.61-20.85 461.75-15.65L461.75-15.65 461.75-2.59 466.58-2.03 466.58 0 454.67 0 454.67-2.03 457.79-2.59ZM601.19 6.03L602.46 6.03Q602.46 8.42 604.59 8.42L604.59 8.42Q605.86 8.42 606.83 6.93L606.83 6.93Q607.08 6.52 607.22 6.1L607.22 6.1 609.96 0.05Q601.8-19.12 600.85-21.56L600.85-21.56 597.51-22.12 597.51-24.15 608.4-24.15 608.4-22.12 605.37-21.56 612.16-5.1 619.33-21.68 616.06-22.12 616.06-24.15 625.66-24.15 625.66-22.12 622.31-21.56 610.06 6.35Q609.52 8.11 608.37 9.38L608.37 9.38Q606.17 11.84 604.59 11.84L604.59 11.84Q602.24 11.84 599.88 10.79L599.88 10.79 601.19 6.03Z" opacity="1" transform="matrix(1,0,0,1,0,0)" fill="#6936f5" class="undefined-text-1" data-fill-palette-color="secondary" id="text-1"></path></svg></g></svg></g></svg></g></svg></g><g transform="matrix(1,0,0,1,82.49778151334108,0)"><svg viewBox="0 0 230.52443697331782 230.52443697331782" height="230.52443697331782" width="230.52443697331782"><g><svg></svg></g><g id="icon-0"><svg viewBox="0 0 230.52443697331782 230.52443697331782" height="230.52443697331782" width="230.52443697331782"><g><path d="M0 115.262c0-63.658 51.605-115.262 115.262-115.262 63.658 0 115.262 51.605 115.262 115.262 0 63.658-51.605 115.262-115.262 115.262-63.658 0-115.262-51.605-115.262-115.262zM115.262 225.977c61.146 0 110.714-49.569 110.715-110.715 0-61.146-49.569-110.714-110.715-110.714-61.146 0-110.714 49.569-110.714 110.714 0 61.146 49.569 110.714 110.714 110.715z" data-fill-palette-color="accent" fill="#6936f5" stroke="transparent"></path></g><g transform="matrix(1,0,0,1,45.62982348228121,46.43306742600039)"><svg viewBox="0 0 139.2647900087554 137.65830212131704" height="137.65830212131704" width="139.2647900087554"><g><svg xmlns="http://www.w3.org/2000/svg" xmlns:xlink="http://www.w3.org/1999/xlink" version="1.1" x="0" y="0" viewBox="1.650133490562439 2 60.7002067565918 60" enable-background="new 0 0 64 64" xml:space="preserve" height="137.65830212131704" width="139.2647900087554" class="icon-a-0" data-fill-palette-color="accent" id="a-0"><g fill="#6936f5" data-fill-palette-color="accent"><path d="M3.583 9.714l3.152-0.705c0.032-0.007 0.057-0.025 0.087-0.033 0.47 0.383 1.084 0.58 1.723 0.438 1.103-0.247 1.797-1.341 1.551-2.444S8.755 5.171 7.652 5.417C7.013 5.56 6.542 6 6.28 6.547c-0.032 0.006-0.062 0-0.093 0.007L3.035 7.259c-0.9 0.201-1.513 0.918-1.362 1.593C1.823 9.527 2.684 9.915 3.583 9.714z" fill="#6936f5" data-fill-palette-color="accent"></path><path d="M3.583 15.822l3.152-0.705c0.032-0.007 0.057-0.025 0.087-0.033 0.47 0.383 1.084 0.58 1.723 0.438 1.103-0.247 1.797-1.341 1.551-2.444s-1.341-1.798-2.444-1.552c-0.639 0.143-1.11 0.583-1.372 1.13-0.032 0.006-0.062 0-0.093 0.006l-3.152 0.706c-0.9 0.2-1.513 0.917-1.362 1.592C1.823 15.635 2.684 16.022 3.583 15.822z" fill="#6936f5" data-fill-palette-color="accent"></path><path d="M3.583 21.93l3.152-0.705c0.032-0.008 0.057-0.025 0.087-0.034 0.47 0.384 1.084 0.581 1.723 0.438 1.103-0.246 1.797-1.341 1.551-2.444s-1.341-1.797-2.444-1.552c-0.639 0.144-1.11 0.583-1.372 1.13-0.032 0.006-0.062 0-0.093 0.007l-3.152 0.706c-0.9 0.2-1.513 0.917-1.362 1.592C1.823 21.744 2.684 22.131 3.583 21.93z" fill="#6936f5" data-fill-palette-color="accent"></path><path d="M3.583 28.038l3.152-0.705c0.032-0.006 0.057-0.024 0.087-0.033 0.47 0.384 1.084 0.581 1.723 0.438 1.103-0.247 1.797-1.341 1.551-2.444s-1.341-1.798-2.444-1.552c-0.639 0.143-1.11 0.583-1.372 1.13-0.032 0.006-0.062 0-0.093 0.007l-3.152 0.706c-0.9 0.2-1.513 0.917-1.362 1.592C1.823 27.852 2.684 28.239 3.583 28.038z" fill="#6936f5" data-fill-palette-color="accent"></path><path d="M3.583 34.146l3.152-0.705c0.032-0.006 0.057-0.024 0.087-0.033 0.47 0.383 1.084 0.58 1.723 0.438 1.103-0.247 1.797-1.342 1.551-2.445-0.247-1.103-1.341-1.797-2.444-1.552-0.639 0.144-1.11 0.583-1.372 1.13-0.032 0.005-0.062 0-0.093 0.006l-3.152 0.705c-0.9 0.201-1.513 0.918-1.362 1.593C1.823 33.96 2.684 34.348 3.583 34.146z" fill="#6936f5" data-fill-palette-color="accent"></path><path d="M3.583 40.255l3.152-0.705c0.032-0.007 0.057-0.025 0.087-0.033 0.47 0.383 1.084 0.58 1.723 0.438 1.103-0.246 1.797-1.342 1.551-2.444s-1.341-1.798-2.444-1.552c-0.639 0.143-1.11 0.583-1.372 1.13-0.032 0.006-0.062 0-0.093 0.007L3.035 37.8c-0.9 0.2-1.513 0.918-1.362 1.593C1.823 40.067 2.684 40.455 3.583 40.255z" fill="#6936f5" data-fill-palette-color="accent"></path><path d="M3.583 46.362l3.152-0.705c0.032-0.006 0.057-0.023 0.087-0.033 0.47 0.383 1.084 0.58 1.723 0.438 1.103-0.246 1.797-1.341 1.551-2.444s-1.341-1.798-2.444-1.552c-0.639 0.144-1.11 0.583-1.372 1.13-0.032 0.006-0.062 0-0.093 0.006l-3.152 0.705c-0.9 0.201-1.513 0.918-1.362 1.594C1.823 46.176 2.684 46.563 3.583 46.362z" fill="#6936f5" data-fill-palette-color="accent"></path><path d="M3.583 52.472l3.152-0.705c0.032-0.008 0.057-0.025 0.087-0.034 0.47 0.384 1.084 0.581 1.723 0.438 1.103-0.247 1.797-1.342 1.551-2.445-0.247-1.103-1.341-1.797-2.444-1.551-0.639 0.143-1.11 0.582-1.372 1.129-0.032 0.006-0.062 0-0.093 0.008l-3.152 0.705c-0.9 0.2-1.513 0.918-1.362 1.592C1.823 52.284 2.684 52.671 3.583 52.472z" fill="#6936f5" data-fill-palette-color="accent"></path><path d="M6.822 57.841c0.47 0.383 1.084 0.58 1.723 0.438 1.103-0.246 1.797-1.341 1.551-2.443-0.247-1.104-1.341-1.799-2.444-1.553-0.639 0.144-1.11 0.584-1.372 1.131-0.032 0.006-0.062 0-0.093 0.006l-3.152 0.705c-0.9 0.201-1.513 0.918-1.362 1.593 0.15 0.676 1.011 1.063 1.911 0.862l3.152-0.705C6.767 57.868 6.792 57.85 6.822 57.841z" fill="#6936f5" data-fill-palette-color="accent"></path><path d="M30.008 46.381c0 0 1.154-0.036 1.889 0.673 0.842 0.816 0.825 1.954 0.825 1.954s1.29 0.095 2.022 0.804c0.713 0.689 0.689 1.822 0.689 1.822l24.01-24.802-5.426-5.252L30.008 46.381z" fill="#6936f5" data-fill-palette-color="accent"></path><path d="M35.006 52.082c0 0 0.141-1.086-0.68-1.88-0.712-0.689-1.991-0.706-1.991-0.706s-0.146-1.362-0.857-2.052c-0.669-0.647-1.903-0.621-1.903-0.621l-4.47 10.053L35.006 52.082zM29.895 47.342c0.375 0.04 0.92 0.159 1.233 0.462 0.473 0.459 0.67 1.416 0.706 1.746l0.049 0.439 0.443 0.01c0.303 0.004 1.189 0.116 1.65 0.563 0.412 0.398 0.512 0.905 0.531 1.203l-5.678 2.748c-0.393-1.037-1.079-1.362-1.477-1.456L29.895 47.342z" fill="#6936f5" data-fill-palette-color="accent"></path><path d="M61.842 21.943l-3.016-2.918c-0.662-0.642-1.73-0.624-2.371 0.038l-1.99 2.057 5.426 5.252 1.99-2.057C62.521 23.653 62.505 22.585 61.842 21.943z" fill="#6936f5" data-fill-palette-color="accent"></path><path d="M35.875 52.806l-1.479 0.715L22.91 59.083l5.237-11.777 0.609-1.37c0 0 0.357-0.521 0.5-0.524l0.092-0.095 3.627-3.747H17.896v-2.516H35.41l3.479-3.594H17.896v-2.516h23.429l10.801-11.158V2H4.434v4.43l1.522-0.341c0.363-0.597 0.928-1.016 1.586-1.164 0.184-0.041 0.372-0.062 0.558-0.062 1.183 0 2.229 0.839 2.488 1.995 0.307 1.373-0.56 2.739-1.933 3.046C8.481 9.943 8.304 9.963 8.127 9.963c-0.494 0-0.99-0.157-1.42-0.446l-2.274 0.52v2.501l1.522-0.341c0.363-0.597 0.928-1.015 1.586-1.163 0.184-0.042 0.372-0.063 0.558-0.063 1.183 0 2.229 0.84 2.488 1.995 0.307 1.373-0.56 2.739-1.933 3.046-0.173 0.038-0.351 0.058-0.527 0.058-0.494 0-0.99-0.157-1.42-0.446l-2.274 0.519v2.503l1.522-0.341c0.363-0.597 0.928-1.016 1.586-1.163 0.184-0.042 0.372-0.063 0.558-0.063 1.183 0 2.229 0.839 2.488 1.995 0.307 1.372-0.56 2.739-1.933 3.045-0.173 0.039-0.351 0.058-0.527 0.058-0.494 0-0.99-0.157-1.42-0.446l-2.274 0.52v2.501l1.522-0.34c0.363-0.597 0.928-1.016 1.586-1.163 0.184-0.042 0.372-0.062 0.558-0.062 1.183 0 2.229 0.839 2.488 1.995 0.307 1.373-0.56 2.738-1.933 3.045-0.173 0.039-0.351 0.058-0.527 0.058-0.494 0-0.99-0.157-1.42-0.446l-2.274 0.52v2.502l1.522-0.34c0.363-0.597 0.928-1.016 1.586-1.163 0.184-0.042 0.372-0.063 0.558-0.063 1.183 0 2.229 0.839 2.488 1.995 0.307 1.372-0.56 2.738-1.933 3.045-0.173 0.039-0.351 0.059-0.527 0.059-0.494 0-0.99-0.157-1.42-0.446L4.434 34.47v2.501l1.522-0.34c0.363-0.598 0.928-1.016 1.586-1.164 0.184-0.041 0.372-0.062 0.558-0.062 1.183 0 2.229 0.84 2.488 1.995 0.307 1.372-0.56 2.737-1.933 3.045-0.173 0.038-0.351 0.058-0.527 0.058-0.494 0-0.99-0.156-1.42-0.445l-2.274 0.52v2.502l1.522-0.341c0.363-0.597 0.928-1.015 1.586-1.163 0.184-0.041 0.372-0.063 0.558-0.063 1.183 0 2.229 0.84 2.488 1.996 0.307 1.372-0.56 2.738-1.933 3.045-0.173 0.038-0.351 0.059-0.527 0.059-0.494 0-0.99-0.158-1.42-0.446l-2.274 0.52v2.501l1.522-0.34c0.363-0.597 0.928-1.016 1.586-1.163 0.184-0.042 0.372-0.062 0.558-0.062 1.183 0 2.229 0.839 2.488 1.994 0.307 1.373-0.56 2.738-1.933 3.045C8.481 52.7 8.304 52.72 8.127 52.72c-0.494 0-0.99-0.157-1.42-0.446l-2.274 0.52v2.503l1.522-0.342c0.363-0.596 0.928-1.015 1.586-1.162 0.184-0.042 0.372-0.063 0.558-0.063 1.183 0 2.229 0.84 2.488 1.995 0.307 1.373-0.56 2.738-1.933 3.046-0.173 0.038-0.351 0.058-0.527 0.058-0.494 0-0.99-0.157-1.42-0.446l-2.274 0.52V62h47.691V36.019l-15.82 16.344L35.875 52.806zM17.896 8.509h26.159v2.516H17.896V8.509zM17.896 14.617h26.159v2.516H17.896V14.617zM17.896 20.727h26.159v2.516H17.896V20.727zM17.896 26.835h26.159v2.516H17.896V26.835z" fill="#6936f5" data-fill-palette-color="accent"></path></g></svg></g></svg></g></svg></g></svg></g><g></g></svg></g><defs></defs></svg><rect width="281.0878253543935" height="247.2" fill="none" stroke="none" visibility="hidden"></rect></g></svg></g></svg>